<?xml version="1.0" encoding="UTF-8"?>
<svg width="80px" height="142px" viewBox="0 0 80 142" version="1.1" xmlns="http://www.w3.org/2000/svg" xmlns:xlink="http://www.w3.org/1999/xlink">
    <title>graphic_knifeFork</title>
    <g id="Page-1" stroke="none" stroke-width="1" fill="none" fill-rule="evenodd">
        <g id="How-busy-is---Shopping" transform="translate(-230.000000, -435.000000)" stroke-width="2">
            <g id="graphic_knifeFork" transform="translate(231.523079, 436.000000)">
                <line x1="11.4769212" y1="140" x2="75.4769212" y2="140" id="Path-2" stroke="#00B67B"></line>
                <path d="M12.1441888,139.93 C11.2223578,138.535915 10.543062,136.584789 10.146724,133.911972 C6.33911836,108.28507 12.6272874,84.3243662 12.8816536,62.3502817 C12.9684141,56.7009859 10.6150339,51.2883099 6.42292118,47.4994366 C0.153484557,41.1590141 -0.946797133,34.4370423 0.663202867,17.9298592 L2.20714653,2.09704225 C2.32348456,0.907042254 3.32320287,-7.10542736e-14 4.51911836,-7.10542736e-14 L4.63447047,-7.10542736e-14 C5.91714653,-7.10542736e-14 6.95630146,1.04014085 6.95630146,2.3228169 L6.95630146,30.8788732 C6.82418878,32.2078873 7.77461132,33.4008451 9.09968174,33.5674648 C10.4257381,33.4008451 11.3771465,32.2078873 11.243062,30.8788732 L11.243062,2.3228169 C11.2470057,1.04507042 12.282217,0.00985915493 13.5599634,0.00591549296 C14.8416536,0.00295774648 15.8847522,1.04014085 15.8877099,2.3228169 L15.8877099,30.8788732 C15.7546113,32.2078873 16.7060198,33.4008451 18.0320761,33.5674648 C19.3581324,33.4008451 20.3075691,32.2078873 20.1754564,30.8788732 L20.1754564,2.3228169 C20.1784141,1.04507042 21.2136254,0.00985915493 22.4913719,0.00591549296 C23.7740479,0.00295774648 24.8161606,1.04014085 24.8201043,2.3228169 L24.8201043,30.8788732 C24.7451747,31.2012676 24.7451747,31.5374648 24.8201043,31.8598592 C25.0902451,33.0429577 26.2694001,33.7833803 27.4524986,33.5122535 C28.6375691,33.2411268 29.3779916,32.0629577 29.1068648,30.8788732 L29.1068648,2.3228169 C29.1068648,1.04014085 30.1460198,-7.10542736e-14 31.4286958,-7.10542736e-14 L31.5450339,-7.10542736e-14 C32.7399634,-7.10542736e-14 33.7396817,0.907042254 33.8560198,2.09704225 L35.3999634,17.9298592 C37.0099634,34.4380282 35.9096817,41.1590141 29.6392592,47.4994366 C25.4481324,51.2883099 23.0947522,56.7009859 23.1805268,62.3502817 C23.4358789,84.3243662 29.723062,108.28507 25.9164423,133.911972 C25.5201043,136.585775 24.8417944,138.536901 23.9209493,139.93 L63.8939071,139.93 C63.8791184,139.911268 63.8613719,139.896479 63.8475691,139.877746 C57.2695409,131.97169 62.0127803,110.067606 65.3096817,91.431831 C66.741231,83.3414085 68.0317944,79.8394366 63.5508085,75.4067606 C57.6846113,69.6046479 50.7102451,52.0780282 55.9701043,25.7876056 C59.3163015,9.06549296 68.6854564,2.66788732 71.1955972,1.03126761 C74.5053155,-1.12690141 76.3371465,0.407183099 76.3371465,2.8384507 L76.3371465,133.279014 C76.3371465,136.289014 75.8244705,138.43338 74.9696817,139.93" id="Stroke-1" stroke="#EFF8BC"></path>
            </g>
        </g>
    </g>
</svg>