<?xml version="1.0" encoding="UTF-8"?>
<svg width="72px" height="50px" viewBox="0 0 72 50" version="1.1" xmlns="http://www.w3.org/2000/svg" xmlns:xlink="http://www.w3.org/1999/xlink">
    <title>02</title>
    <g id="Page-1" stroke="none" stroke-width="1" fill="none" fill-rule="evenodd">
        <g id="How-busy-is---saftey" transform="translate(-440.000000, -1023.000000)" fill-rule="nonzero" stroke="#C6B2D3">
            <path d="M458.5,1072 C462.257803,1072 465.436642,1070.98889 468.036517,1068.96667 C470.636392,1066.94444 472.613608,1064.12222 473.968165,1060.5 C475.322722,1056.87778 476,1052.71111 476,1048 C476,1043.24444 475.322722,1039.06667 473.968165,1035.46667 C472.613608,1031.86667 470.636392,1029.05556 468.036517,1027.03333 C465.436642,1025.01111 462.257803,1024 458.5,1024 C454.742197,1024 451.563358,1025.01111 448.963483,1027.03333 C446.363608,1029.05556 444.386392,1031.86667 443.031835,1035.46667 C441.677278,1039.06667 441,1043.24444 441,1048 C441,1052.71111 441.677278,1056.87778 443.031835,1060.5 C444.386392,1064.12222 446.363608,1066.94444 448.963483,1068.96667 C451.563358,1070.98889 454.742197,1072 458.5,1072 Z M458,1064 C456.20438,1064 454.627737,1063.41111 453.270073,1062.23333 C451.912409,1061.05556 450.861314,1059.27778 450.116788,1056.9 C449.372263,1054.52222 449,1051.55556 449,1048 C449,1044.4 449.372263,1041.42222 450.116788,1039.06667 C450.861314,1036.71111 451.912409,1034.94444 453.270073,1033.76667 C454.627737,1032.58889 456.20438,1032 458,1032 C459.839416,1032 461.427007,1032.58889 462.762774,1033.76667 C464.09854,1034.94444 465.138686,1036.71111 465.883212,1039.06667 C466.627737,1041.42222 467,1044.4 467,1048 C467,1051.55556 466.627737,1054.52222 465.883212,1056.9 C465.138686,1059.27778 464.09854,1061.05556 462.762774,1062.23333 C461.427007,1063.41111 459.839416,1064 458,1064 Z M507.339869,1071 C508.385621,1071 509.257081,1070.65798 509.954248,1069.97394 C510.651416,1069.28991 511,1068.44038 511,1067.42535 C511,1066.3662 510.651416,1065.48357 509.954248,1064.77746 C509.257081,1064.07136 508.385621,1063.71831 507.339869,1063.71831 L507.339869,1063.71831 L493.903869,1063.71831 L502.176471,1054.78169 C503.592593,1053.22448 504.858432,1051.61019 505.97399,1049.93883 L506.228758,1049.55211 C507.405229,1047.74272 508.331155,1045.87817 509.006536,1043.95845 C509.681917,1042.03873 510.019608,1040.15211 510.019608,1038.29859 C510.019608,1035.56244 509.431373,1033.11315 508.254902,1030.9507 C507.078431,1028.78826 505.422658,1027.0892 503.287582,1025.85352 C501.152505,1024.61784 498.603486,1024 495.640523,1024 C493.636166,1024 491.544662,1024.50751 489.366013,1025.52254 C487.187364,1026.53756 485.270153,1027.88357 483.614379,1029.56056 C482.873638,1030.3108 482.252723,1031.03897 481.751634,1031.74507 C481.250545,1032.45117 481,1033.17934 481,1033.92958 C481,1034.90047 481.40305,1035.75 482.20915,1036.47817 C483.015251,1037.20634 483.897603,1037.57042 484.856209,1037.57042 C485.291939,1037.57042 485.771242,1037.48216 486.294118,1037.30563 C486.816993,1037.12911 487.339869,1036.68779 487.862745,1035.98169 C488.864924,1034.56948 490.019608,1033.4331 491.326797,1032.57254 C492.633987,1031.71197 493.91939,1031.28169 495.183007,1031.28169 C496.40305,1031.28169 497.535948,1031.61268 498.581699,1032.27465 C499.627451,1032.93662 500.477124,1033.81925 501.130719,1034.92254 C501.784314,1036.02582 502.111111,1037.2615 502.111111,1038.62958 C502.111111,1040.17418 501.631808,1041.84014 500.673203,1043.62746 C499.714597,1045.41479 498.45098,1047.16901 496.882353,1048.89014 L496.882353,1048.89014 L482.633987,1064.31408 C481.849673,1065.15258 481.457516,1066.12347 481.457516,1067.22676 C481.457516,1068.33005 481.784314,1069.23474 482.437908,1069.94085 C483.091503,1070.64695 483.984749,1071 485.117647,1071 L485.117647,1071 L507.339869,1071 Z" id="02"></path>
        </g>
    </g>
</svg>