<?xml version="1.0" encoding="UTF-8"?>
<svg width="74px" height="143px" viewBox="0 0 74 143" version="1.1" xmlns="http://www.w3.org/2000/svg" xmlns:xlink="http://www.w3.org/1999/xlink">
    <title>graphic_walkingMan</title>
    <g id="Page-1" stroke="none" stroke-width="1" fill="none" fill-rule="evenodd">
        <g id="How-busy-is-" transform="translate(-207.000000, -411.000000)" stroke-width="2">
            <g id="graphic_walkingMan" transform="translate(208.000000, 412.500200)">
                <line x1="65" y1="139.4998" x2="12" y2="139.4998" id="Path-2" stroke="#F59843"></line>
                <path d="M64.995,139.4998 L71.797,138.1798 C71.346,135.8618 69.358,134.1608 66.999,134.0758 L59.226,133.7978 L60.959,133.2008 L55.359,104.2308 C55.235,103.7248 55.048,103.2498 54.811,102.8118 C54.77,102.6828 54.731,102.5518 54.68,102.4228 L43.242,73.9268 L47.129,73.9268 L47.129,61.2678 L51.712,65.3738 L52.745,64.2218 L59.207,70.0108 C59.848,70.5858 60.852,70.5048 61.372,69.8178 C61.374,69.8148 61.376,69.8118 61.379,69.8108 C62.463,68.3698 62.158,66.3118 60.815,65.1078 L55.432,61.2208 L56.93,59.5498 L47.129,50.7678 L47.129,38.9098 C47.129,34.5648 45.356,30.6358 42.496,27.8008 L42.496,24.1648 L39.887,23.6008 L39.887,22.0998 L39.887,20.4588 L43.679,20.4588 C44.759,20.4588 45.635,19.5828 45.635,18.5038 L45.635,16.1948 L45.635,14.9998 L46.571,14.9998 C47.442,14.9998 47.879,13.9468 47.262,13.3318 L45.635,11.7028 L45.635,8.1548 C46.833,7.3328 47.585,5.9068 47.444,4.3128 C47.252,2.1308 45.341,0.4998 43.149,0.4998 L34.223,0.4998 C30.917,0.4998 28.236,3.1808 28.236,6.4868 C28.236,7.1668 28.999,13.2188 31.354,16.8338 L31.354,21.7538 L30.639,21.5988 L30.639,23.3248 C27.396,23.7418 24.889,26.5108 24.889,29.8668 L24.848,30.6688 L15.492,50.4218 C15.325,50.7748 15.217,51.1408 15.159,51.5078 L10.873,72.4068 L12.389,72.7178 L10.716,80.8808 C10.579,81.5458 10.78,82.2478 11.281,82.7058 C11.529,82.9338 11.716,82.9678 11.915,82.9908 C13.704,83.2028 15.329,81.9008 15.691,80.1358 L16.336,73.5268 L18.534,73.9788 L22.656,53.8778 L23.782,52.0408 L22.689,73.9268 L23.809,73.9268 C24.012,75.2518 24.57,76.4958 25.413,77.5258 L19.131,102.8318 L0.306,131.9488 L12.302,139.4998" id="Stroke-1" stroke="#FDE9CA" stroke-linecap="round" stroke-linejoin="round"></path>
                <path d="M53.5066,139.4998 L52.8266,135.9998 L52.5246,136.1038 L43.0966,108.3608 C43.0956,108.3598 43.0956,108.3588 43.0956,108.3578 C42.9586,108.1478 42.8326,107.9298 42.7186,107.6998 L36.1106,94.3768 L29.7016,109.6088 C29.5046,110.0778 29.2376,110.5148 28.9106,110.9038 L11.4136,131.7338 L15.0236,135.3728 C16.1306,136.4888 16.6156,138.0148 16.4536,139.4998 L53.5066,139.4998 Z" id="Stroke-3" stroke="#FDE9CA" stroke-linejoin="round"></path>
            </g>
        </g>
    </g>
</svg>