<?xml version="1.0" encoding="UTF-8"?>
<svg width="71px" height="49px" viewBox="0 0 71 49" version="1.1" xmlns="http://www.w3.org/2000/svg" xmlns:xlink="http://www.w3.org/1999/xlink">
    <title>03</title>
    <g id="Page-1" stroke="none" stroke-width="1" fill="none" fill-rule="evenodd">
        <g id="How-busy-is---saftey" transform="translate(-440.000000, -1224.000000)" fill-rule="nonzero" stroke="#C6B2D3">
            <path d="M459,1272 C462.865169,1272 466.134831,1271.00995 468.808989,1269.02986 C471.483146,1267.04977 473.516854,1264.28634 474.910112,1260.73958 C476.303371,1257.19282 477,1253.11296 477,1248.5 C477,1243.84352 476.303371,1239.75278 474.910112,1236.22778 C473.516854,1232.70278 471.483146,1229.95023 468.808989,1227.97014 C466.134831,1225.99005 462.865169,1225 459,1225 C455.134831,1225 451.865169,1225.99005 449.191011,1227.97014 C446.516854,1229.95023 444.483146,1232.70278 443.089888,1236.22778 C441.696629,1239.75278 441,1243.84352 441,1248.5 C441,1253.11296 441.696629,1257.19282 443.089888,1260.73958 C444.483146,1264.28634 446.516854,1267.04977 449.191011,1269.02986 C451.865169,1271.00995 455.134831,1272 459,1272 Z M459,1265 C457.20438,1265 455.627737,1264.41111 454.270073,1263.23333 C452.912409,1262.05556 451.861314,1260.27778 451.116788,1257.9 C450.372263,1255.52222 450,1252.55556 450,1249 C450,1245.4 450.372263,1242.42222 451.116788,1240.06667 C451.861314,1237.71111 452.912409,1235.94444 454.270073,1234.76667 C455.627737,1233.58889 457.20438,1233 459,1233 C460.839416,1233 462.427007,1233.58889 463.762774,1234.76667 C465.09854,1235.94444 466.138686,1237.71111 466.883212,1240.06667 C467.627737,1242.42222 468,1245.4 468,1249 C468,1252.55556 467.627737,1255.52222 466.883212,1257.9 C466.138686,1260.27778 465.09854,1262.05556 463.762774,1263.23333 C462.427007,1264.41111 460.839416,1265 459,1265 Z M492.345133,1272 C495.884956,1272 498.982301,1271.37371 501.637168,1270.12113 C504.292035,1268.86854 506.349558,1267.07606 507.809735,1264.74366 C509.269912,1262.41127 510,1259.64695 510,1256.4507 C510,1254.03192 509.480088,1251.77512 508.440265,1249.68028 C507.400442,1247.58545 505.918142,1245.87934 503.993363,1244.56197 C502.192763,1243.32959 500.092064,1242.67365 497.691265,1242.59414 L497.625715,1242.59274 L506.548673,1232.99718 C506.981318,1232.57486 507.3353,1232.13547 507.610619,1231.67901 L507.710177,1231.50704 C507.997788,1230.98873 508.141593,1230.44883 508.141593,1229.88732 C508.141593,1228.76432 507.798673,1227.83568 507.112832,1227.10141 C506.426991,1226.36714 505.39823,1226 504.026549,1226 L504.026549,1226 L483.716814,1226 C482.654867,1226 481.769912,1226.33474 481.061947,1227.00423 C480.353982,1227.67371 480,1228.50516 480,1229.49859 C480,1230.53521 480.353982,1231.39906 481.061947,1232.09014 C481.769912,1232.78122 482.654867,1233.12676 483.716814,1233.12676 L483.716814,1233.12676 L496.852398,1233.12719 L486.570796,1244.07606 C486.128319,1244.58651 485.786404,1245.06127 485.545052,1245.50034 L485.475664,1245.63099 C485.232301,1246.1061 485.110619,1246.64601 485.110619,1247.2507 C485.110619,1248.20094 485.387168,1249.0216 485.940265,1249.71268 C486.493363,1250.40376 487.278761,1250.7493 488.29646,1250.7493 C489.09292,1250.7493 489.789823,1250.65211 490.387168,1250.45775 C490.984513,1250.26338 491.603982,1250.07981 492.245575,1249.90704 C492.887168,1249.73427 493.69469,1249.64789 494.668142,1249.64789 C495.951327,1249.64789 497.15708,1249.92864 498.285398,1250.49014 C499.413717,1251.05164 500.320796,1251.8723 501.006637,1252.95211 C501.692478,1254.03192 502.035398,1255.39249 502.035398,1257.0338 C502.035398,1258.7615 501.637168,1260.24085 500.840708,1261.47183 C500.044248,1262.70282 499.037611,1263.65305 497.820796,1264.32254 C496.603982,1264.99202 495.309735,1265.32676 493.938053,1265.32676 C492.566372,1265.32676 491.360619,1265.1108 490.320796,1264.67887 C489.280973,1264.24695 488.384956,1263.75023 487.632743,1263.18873 C487.057522,1262.8 486.537611,1262.54085 486.073009,1262.41127 C485.608407,1262.28169 485.176991,1262.2169 484.778761,1262.2169 C483.672566,1262.2169 482.754425,1262.65962 482.024336,1263.54507 C481.294248,1264.43052 480.929204,1265.36995 480.929204,1266.36338 C480.929204,1266.92488 481.095133,1267.51878 481.426991,1268.14507 C481.75885,1268.77136 482.411504,1269.34366 483.384956,1269.86197 C484.535398,1270.50986 485.90708,1271.02817 487.5,1271.4169 C489.09292,1271.80563 490.707965,1272 492.345133,1272 Z" id="03"></path>
        </g>
    </g>
</svg>