<?xml version="1.0" encoding="UTF-8"?>
<svg width="173px" height="66px" viewBox="0 0 173 66" version="1.1" xmlns="http://www.w3.org/2000/svg" xmlns:xlink="http://www.w3.org/1999/xlink">
    <title>graphic_car</title>
    <g id="Page-1" stroke="none" stroke-width="1" fill="none" fill-rule="evenodd">
        <g id="How-busy-is---Parking" transform="translate(-149.000000, -479.000000)" stroke-width="2">
            <g id="graphic_car" transform="translate(149.999900, 480.000000)">
                <line x1="24.0001" y1="64" x2="143.0001" y2="64" id="Path-3" stroke="#55AEE4"></line>
                <path d="M142.409868,63.6759971 C146.350328,62.2550447 149.492326,59.173876 150.967406,55.2716361 L151.321702,53.2740404 L166.275575,50.6533257 C168.947483,50.0663544 170.851903,47.7055595 170.851903,44.9798441 L170.851903,40.4914935 C170.869322,40.126573 170.717234,39.7728411 170.438982,39.5335771 L167.602024,36.8913459 L167.602024,34.1105481 C167.581284,31.6765969 166.051764,29.5085902 163.758347,28.6651418 L129.497948,20.8468914 C117.00427,11.6730988 97.2138285,1.95364682 88.0021391,1.13601825 C78.7913138,0.319250342 44.4099361,0.50084995 36.5670381,2.40807617 C28.7241401,4.31530239 4.10058569,21.7548894 4.10058569,24.4797442 L4.10058569,35.0168248 C4.10058569,36.924051 0.81686902,38.1048788 0.81686902,39.1953371 L0.81686902,46.3706733 C0.81686902,47.5515011 1.08993598,48.0050698 3.82665459,49.8219265 C6.56250906,51.6396439 12.7644129,53.2740404 15.3637339,53.2740404 L15.6921055,53.2740404 C16.7420307,58.0980489 20.2322759,62.0140594 24.8113324,63.6759971" id="Stroke-1" stroke="#C3E3F4" stroke-linejoin="round"></path>
                <path d="M133.0001,63.6759971 C128.419425,62.0782807 124.927946,58.3135943 123.877649,53.6759971 L44.1234152,53.6759971 C43.0731188,58.3135943 39.5816398,62.0782807 35.0001,63.6759971 L133.0001,63.6759971 Z" id="Stroke-4" stroke="#C3E3F4" stroke-linejoin="round"></path>
            </g>
        </g>
    </g>
</svg>