<?xml version="1.0" encoding="UTF-8"?>
<svg width="58px" height="49px" viewBox="0 0 58 49" version="1.1" xmlns="http://www.w3.org/2000/svg" xmlns:xlink="http://www.w3.org/1999/xlink">
    <title>01</title>
    <g id="Page-1" stroke="none" stroke-width="1" fill="none" fill-rule="evenodd">
        <g id="How-busy-is---saftey" transform="translate(-440.000000, -824.000000)" fill-rule="nonzero" stroke="#C6B2D3">
            <path d="M458.5,872 C462.257803,872 465.436642,871.009954 468.036517,869.029861 C470.636392,867.049769 472.613608,864.286343 473.968165,860.739583 C475.322722,857.192824 476,853.112963 476,848.5 C476,843.843519 475.322722,839.752778 473.968165,836.227778 C472.613608,832.702778 470.636392,829.950231 468.036517,827.970139 C465.436642,825.990046 462.257803,825 458.5,825 C454.742197,825 451.563358,825.990046 448.963483,827.970139 C446.363608,829.950231 444.386392,832.702778 443.031835,836.227778 C441.677278,839.752778 441,843.843519 441,848.5 C441,853.112963 441.677278,857.192824 443.031835,860.739583 C444.386392,864.286343 446.363608,867.049769 448.963483,869.029861 C451.563358,871.009954 454.742197,872 458.5,872 Z M459,865 C457.20438,865 455.627737,864.411111 454.270073,863.233333 C452.912409,862.055556 451.861314,860.277778 451.116788,857.9 C450.372263,855.522222 450,852.555556 450,849 C450,845.4 450.372263,842.422222 451.116788,840.066667 C451.861314,837.711111 452.912409,835.944444 454.270073,834.766667 C455.627737,833.588889 457.20438,833 459,833 C460.839416,833 462.427007,833.588889 463.762774,834.766667 C465.09854,835.944444 466.138686,837.711111 466.883212,840.066667 C467.627737,842.422222 468,845.4 468,849 C468,852.555556 467.627737,855.522222 466.883212,857.9 C466.138686,860.277778 465.09854,862.055556 463.762774,863.233333 C462.427007,864.411111 460.839416,865 459,865 Z M492.584507,872 C493.877934,872 494.937207,871.616667 495.762324,870.85 C496.587441,870.083333 497,869.130476 497,867.991429 L497,867.991429 L497,830.008571 C497,828.869524 496.632042,827.916667 495.896127,827.15 C495.160211,826.383333 494.212441,826 493.052817,826 C491.893192,826 490.934272,826.197143 490.176056,826.591429 L490.176056,826.591429 L480.073944,832.505714 C478.691315,833.294286 478,834.433333 478,835.922857 C478,836.886667 478.379108,837.795714 479.137324,838.65 C479.89554,839.504286 480.85446,839.931429 482.014085,839.931429 C482.7723,839.931429 483.485915,839.734286 484.15493,839.34 L484.15493,839.34 L488.302482,836.873985 L488.302817,867.991429 C488.302817,869.080952 488.670079,870.000124 489.404603,870.748944 L489.507042,870.85 C490.309859,871.616667 491.335681,872 492.584507,872 Z" id="01"></path>
        </g>
    </g>
</svg>