<?xml version="1.0" encoding="UTF-8"?>
<svg width="56px" height="56px" viewBox="0 0 56 56" version="1.1" xmlns="http://www.w3.org/2000/svg" xmlns:xlink="http://www.w3.org/1999/xlink">
    <title>icon_happy</title>
    <defs>
        <linearGradient x1="50%" y1="0%" x2="50%" y2="69.8478828%" id="linearGradient-1">
            <stop stop-color="#38DBB4" offset="0%"></stop>
            <stop stop-color="#1AB57D" offset="100%"></stop>
        </linearGradient>
    </defs>
    <g id="Page-1" stroke="none" stroke-width="1" fill="none" fill-rule="evenodd">
        <g id="How-busy-is-" transform="translate(-118.000000, -721.000000)">
            <g id="icon_happy" transform="translate(118.000000, 721.000000)">
                <circle id="Oval" fill="#FFFFFF" cx="28" cy="28" r="28"></circle>
                <g id="Group" transform="translate(8.000000, 8.000000)">
                    <g id="Group-10" transform="translate(-4.000000, -4.000000)">
                        <path d="M48.00012,24.00036 C48.00012,37.25436 37.25412,48.00036 24.00012,48.00036 C10.74492,48.00036 0.00012,37.25436 0.00012,24.00036 C0.00012,10.74516 10.74492,0.00036 24.00012,0.00036 C37.25412,0.00036 48.00012,10.74516 48.00012,24.00036" id="Fill-1" fill="url(#linearGradient-1)"></path>
                        <path d="M16.36332,24.43608 L18.06012,22.73928 C19.64412,24.32328 21.75252,25.19568 24.00012,25.19568 C26.24652,25.19568 28.35612,24.32328 29.94012,22.73928 L31.63692,24.43608 C29.60052,26.47248 26.88732,27.59568 24.00012,27.59568 C21.11172,27.59568 18.39972,26.47248 16.36332,24.43608 Z" id="Fill-4" fill="#1D326B"></path>
                        <path d="M18.00648,14.12496 C18.00648,15.44976 16.93128,16.52496 15.60648,16.52496 C14.28168,16.52496 13.20648,15.44976 13.20648,14.12496 C13.20648,12.80016 14.28168,11.72496 15.60648,11.72496 C16.93128,11.72496 18.00648,12.80016 18.00648,14.12496" id="Fill-6" fill="#1D326B"></path>
                        <path d="M32.39304,16.52496 C31.06824,16.52496 29.99304,15.44976 29.99304,14.12496 C29.99304,12.80016 31.06824,11.72496 32.39304,11.72496 C33.71904,11.72496 34.79304,12.80016 34.79304,14.12496 C34.79304,15.44976 33.71904,16.52496 32.39304,16.52496 Z" id="Fill-8" fill="#1D326B"></path>
                    </g>
                </g>
            </g>
        </g>
    </g>
</svg>